<svg width="587" height="481" viewBox="0 0 587 481" fill="none" xmlns="http://www.w3.org/2000/svg">
<path d="M288.605 234.472C288.728 234.363 288.909 234.363 289.032 234.472L568.381 480.402C568.614 480.607 568.474 481 568.168 481H9.46905C9.16294 481 9.02243 480.607 9.25531 480.402L288.605 234.472Z" fill="#CE1D5D"/>
<path d="M586.384 469.475C586.589 469.805 586.18 470.172 585.892 469.917L303.686 219.734C303.533 219.598 303.533 219.353 303.687 219.218L384.98 147.783C385.131 147.65 385.362 147.685 385.47 147.858L586.384 469.475Z" fill="#008BD0"/>
<path d="M0.546765 461.347C0.258314 461.601 -0.149988 461.234 0.0558544 460.904L288.165 0.155618C288.295 -0.0519621 288.589 -0.0518477 288.718 0.155812L371.703 133.13C371.792 133.273 371.765 133.462 371.64 133.572L0.546765 461.347Z" fill="#594793"/>
</svg>
